<svg width="375" height="812" viewBox="0 0 375 812" xmlns="http://www.w3.org/2000/svg">
  <rect width="375" height="812" fill="#f8fafc" rx="20"/>
  
  <rect x="0" y="0" width="375" height="80" fill="white"/>
  <rect x="0" y="79" width="375" height="1" fill="#e2e8f0"/>
  
  <text x="20" y="50" font-family="Arial, sans-serif" font-size="18" font-weight="bold" fill="#1e293b">Verification App</text>
  
  <rect x="280" y="30" width="80" height="35" rx="17" fill="#0052FF"/>
  <text x="320" y="50" text-anchor="middle" font-family="Arial, sans-serif" font-size="12" fill="white">Connect</text>
  
  <rect x="20" y="120" width="335" height="400" fill="white" rx="12"/>
  
  <circle cx="187" cy="200" r="30" fill="#fbbf24"/>
  <path d="M177 200 L185 208 L197 188" stroke="white" stroke-width="3" fill="none" stroke-linecap="round" stroke-linejoin="round"/>
  
  <text x="187" y="250" text-anchor="middle" font-family="Arial, sans-serif" font-size="20" font-weight="bold" fill="#1e293b">Verification Required</text>
  <text x="187" y="275" text-anchor="middle" font-family="Arial, sans-serif" font-size="14" fill="#64748b">Connect your wallet to unlock</text>
  <text x="187" y="295" text-anchor="middle" font-family="Arial, sans-serif" font-size="14" fill="#64748b">premium features</text>
  
  <rect x="40" y="320" width="295" height="60" fill="#f1f5f9" rx="8"/>
  <text x="50" y="340" font-family="Arial, sans-serif" font-size="12" font-weight="bold" fill="#64748b">Connected Wallet:</text>
  <text x="50" y="360" font-family="Monaco, monospace" font-size="10" fill="#374151">0x742d...3d80</text>
  
  <rect x="60" y="420" width="255" height="50" rx="25" fill="#0052FF"/>
  <text x="187" y="450" text-anchor="middle" font-family="Arial, sans-serif" font-size="16" font-weight="bold" fill="white">Verify My Wallet</text>
  
  <rect x="0" y="732" width="375" height="80" fill="white"/>
  <rect x="0" y="732" width="375" height="1" fill="#e2e8f0"/>
</svg> 